<svg width="59" height="84" viewBox="0 0 59 84" fill="none" xmlns="http://www.w3.org/2000/svg">
<path d="M20.6075 22.8707C20.6075 22.8707 19.2742 6 0.607544 2C0.607544 2 -4.25112 18.6307 13.5115 31.6493" stroke="#00A876" stroke-width="3" stroke-linecap="round" stroke-linejoin="round"/>
<path d="M12.7409 61.3147V68.6667C12.7409 73.8214 8.56222 79.3334 3.40755 79.3334L2.07422 82" stroke="#00A876" stroke-width="3" stroke-linecap="round" stroke-linejoin="round"/>
<path d="M55.4076 82L54.0743 79.3334C48.9196 79.3334 44.741 73.8214 44.741 68.6667V61.3147" stroke="#00A876" stroke-width="3" stroke-linecap="round" stroke-linejoin="round"/>
<path d="M46.1583 37.772C45.5813 35.6237 44.7801 33.542 43.7676 31.5613L43.837 31.6493C61.5996 18.6307 56.741 2 56.741 2C56.6823 2.012 56.629 2.028 56.5716 2.04133C38.0743 6.108 36.741 22.7587 36.741 22.7587L37.7263 23.992C35.1979 21.8916 32.0276 20.7183 28.741 20.6667C20.7903 20.6667 14.001 27.7667 11.3103 37.772" stroke="#00A876" stroke-width="3" stroke-linecap="round" stroke-linejoin="round"/>
<path d="M10.7515 54.4573C11.6706 59.7702 14.0595 64.7194 17.6475 68.744C20.3408 74.4 24.3048 78 28.7408 78C33.1768 78 37.1408 74.4 39.8341 68.744C43.4221 64.7194 45.811 59.7702 46.7301 54.4573" stroke="#00A876" stroke-width="3" stroke-linecap="round" stroke-linejoin="round"/>
<path d="M56.6849 2C56.6262 2.012 56.5729 2.028 56.5155 2.04133C55.9475 5.836 53.6235 16.6293 45.1409 23.152" stroke="#00A876" stroke-width="3" stroke-linecap="round" stroke-linejoin="round"/>
<path d="M1.14087 2C1.19954 2.012 1.25287 2.028 1.3102 2.04133C1.8782 5.836 4.2022 16.6293 12.6849 23.152" stroke="#00A876" stroke-width="3" stroke-linecap="round" stroke-linejoin="round"/>
<path d="M28.741 78V70" stroke="#00A876" stroke-width="3" stroke-linecap="round" stroke-linejoin="round"/>
<path d="M32.741 66V67.3333C32.741 68.0406 32.46 68.7189 31.9599 69.219C31.4598 69.7191 30.7815 70 30.0743 70H27.4076C26.7004 70 26.0221 69.7191 25.522 69.219C25.0219 68.7189 24.741 68.0406 24.741 67.3333V66" stroke="#00A876" stroke-width="3" stroke-linecap="round" stroke-linejoin="round"/>
<path d="M11.9316 38H24.2222C24.7134 38 25.1845 38.1951 25.5318 38.5424C25.8791 38.8898 26.0742 39.3608 26.0742 39.852V48.1427C26.0742 48.9119 25.9227 49.6735 25.6284 50.3842C25.334 51.0948 24.9025 51.7405 24.3586 52.2844C23.8147 52.8283 23.169 53.2598 22.4584 53.5541C21.7477 53.8485 20.9861 54 20.2169 54H7.92622C7.43504 54 6.96397 53.8049 6.61666 53.4576C6.26934 53.1102 6.07422 52.6392 6.07422 52.148V43.8573C6.07422 42.3039 6.69133 40.814 7.78979 39.7156C8.88826 38.6171 10.3781 38 11.9316 38V38Z" stroke="#00A876" stroke-width="3" stroke-linecap="round" stroke-linejoin="round"/>
<path d="M7.40747 42H26.0741" stroke="#00A876" stroke-width="3" stroke-linecap="round" stroke-linejoin="round"/>
<path d="M26.0741 46H7.40747" stroke="#00A876" stroke-width="3" stroke-linecap="round" stroke-linejoin="round"/>
<path d="M24.6381 50H7.40747" stroke="#00A876" stroke-width="3" stroke-linecap="round" stroke-linejoin="round"/>
<path d="M49.5555 54H37.2648C35.7113 54 34.2215 53.3829 33.123 52.2844C32.0246 51.186 31.4075 49.6961 31.4075 48.1427V39.852C31.4075 39.3608 31.6026 38.8898 31.9499 38.5424C32.2972 38.1951 32.7683 38 33.2595 38H45.5501C47.1036 38 48.5934 38.6171 49.6919 39.7156C50.7904 40.814 51.4075 42.3039 51.4075 43.8573V52.148C51.4075 52.6392 51.2123 53.1102 50.865 53.4576C50.5177 53.8049 50.0467 54 49.5555 54V54Z" stroke="#00A876" stroke-width="3" stroke-linecap="round" stroke-linejoin="round"/>
<path d="M50.0741 42H31.4075" stroke="#00A876" stroke-width="3" stroke-linecap="round" stroke-linejoin="round"/>
<path d="M31.4075 46H50.0741" stroke="#00A876" stroke-width="3" stroke-linecap="round" stroke-linejoin="round"/>
<path d="M32.8435 50H50.0742" stroke="#00A876" stroke-width="3" stroke-linecap="round" stroke-linejoin="round"/>
<path d="M23.4075 38H32.7408" stroke="#00A876" stroke-width="3" stroke-linecap="round" stroke-linejoin="round"/>
</svg>
