<svg width="123" height="160" viewBox="0 0 123 160" fill="none" xmlns="http://www.w3.org/2000/svg">
<path fill-rule="evenodd" clip-rule="evenodd" d="M65.6502 13.6685C65.7262 14.9539 65.7995 16.1989 65.9169 17.2551C66.5302 22.7927 73.3642 56.5154 73.8115 58.6667C74.1529 60.3123 75.6535 61.3545 77.1595 61.4391C77.9335 61.4829 78.7769 61.2723 79.4075 60.6819C80.0395 60.0891 80.2929 59.2701 80.2409 58.3834V58.376C80.0895 56.0603 79.6369 46.238 79.6369 42.442C79.6369 41.1237 79.5135 38.0627 79.3642 34.3382C79.2929 32.5767 79.2162 30.6669 79.1435 28.7228C78.9162 22.6224 78.7289 16.1723 78.8782 12.6679C78.9429 11.1571 79.5082 10.2077 80.1969 9.62763C80.9022 9.03375 81.8535 8.72937 82.8595 8.70921C83.8742 8.68887 84.8569 8.96073 85.5649 9.42063C86.2549 9.86937 86.6442 10.4617 86.6675 11.1535C86.7389 13.2808 87.2009 17.532 87.6702 21.8538C87.7102 22.2236 87.7502 22.5939 87.7902 22.9634C88.3055 27.7178 88.7882 32.3256 88.7882 34.3714C88.7882 38.6505 89.8509 60.0225 90.0022 62.4795C90.1229 64.4397 91.8769 65.6031 93.7502 65.7285C95.6422 65.8545 97.7122 64.9875 99.1135 63.0735C99.7822 62.1603 100.689 60.3393 101.678 58.1477C102.686 55.9137 103.832 53.1763 104.976 50.3429C107.266 44.6745 109.565 38.5864 110.78 35.297C113.035 29.1886 118.014 28.7977 119.465 29.5346C119.962 29.7873 120.414 30.4183 120.322 32.3189C120.234 34.1567 119.659 36.6808 118.82 39.9861C118.01 43.1768 115.848 48.709 113.626 54.0409C112.039 57.8494 110.448 61.4961 109.335 64.0449C108.896 65.0523 108.531 65.8881 108.27 66.4953C106.355 70.9635 105.757 77.4561 105.757 85.2567C105.757 87.6087 105.977 90.7719 106.218 94.2291C106.378 96.5397 106.548 98.9811 106.668 101.4C106.971 107.554 106.955 113.607 105.799 117.651C105.271 119.497 105.08 121.968 105.09 124.684C105.1 127.421 105.316 130.488 105.642 133.568C106.274 139.544 107.325 145.627 108.13 149.55C106.558 152.766 103.52 154.871 99.6489 156.093C95.6329 157.36 90.7989 157.644 86.0709 157.211C81.3455 156.778 76.8315 155.64 73.4802 154.149C71.8035 153.402 70.4669 152.589 69.5415 151.77C68.6082 150.942 68.1862 150.192 68.1155 149.563C67.1835 141.288 64.9855 137.026 62.0449 132.276C61.5909 131.542 60.7749 130.693 59.7962 129.801C58.7949 128.889 57.5375 127.855 56.1195 126.748C53.2829 124.534 49.7389 121.976 46.1822 119.422C45.8342 119.172 45.4863 118.923 45.1389 118.674C41.9222 116.365 38.7463 114.087 36.0867 112.071C33.0958 109.804 30.9001 107.973 29.9901 106.848C27.8682 104.223 22.1709 98.9469 16.9194 94.2225C14.2364 91.8093 11.6665 89.5365 9.6812 87.7803C7.7166 86.0427 6.3244 84.8115 5.96146 84.4509C5.59926 84.0915 5.16666 83.7429 4.7902 83.4393C4.71273 83.3769 4.63766 83.3163 4.56606 83.2581C4.11166 82.8879 3.74333 82.5663 3.4682 82.2333C3.2036 81.9123 3.0584 81.6189 3.01473 81.3141C2.9716 81.0129 3.01266 80.5959 3.30926 80.0073C3.49993 79.6281 3.95533 79.2321 4.81726 78.8973C5.66933 78.5667 6.78693 78.3507 8.0494 78.2631C10.5906 78.0867 13.4069 78.4485 15.2261 79.1181C16.0271 79.4127 17.2916 80.2227 18.9102 81.4671C20.4873 82.6797 22.2749 84.2043 24.0975 85.8075C25.1339 86.7189 26.1869 87.6609 27.2165 88.5819C29.7591 90.8559 32.1589 93.0027 33.8139 94.2483C35.0033 95.1429 36.2428 95.9169 37.482 96.4527C38.7141 96.9849 40.0253 97.3155 41.3245 97.2255C42.6687 97.1319 43.8871 96.5943 44.8754 95.5809C45.8342 94.5975 46.5409 93.2061 47.0249 91.4235C47.9875 87.8721 47.8949 84.0159 47.3935 80.3073C46.9389 76.9443 46.1362 73.6275 45.4291 70.7085C45.3563 70.4079 45.2845 70.1109 45.2142 69.8193C44.4735 66.7431 41.4119 58.4058 38.2569 49.8145C38.1018 49.392 37.9465 48.969 37.7911 48.5459C34.4425 39.4245 31.1045 30.2752 30.2147 26.593C29.3043 22.8258 28.9917 20.2453 29.3861 18.465C29.5752 17.6114 29.9195 16.9841 30.41 16.4981C30.9054 16.0074 31.6225 15.5892 32.6797 15.2611C33.512 15.0028 34.0573 15.1137 34.5586 15.4394C35.1613 15.8311 35.796 16.6045 36.4794 17.8796C37.4211 19.6367 38.276 21.9733 39.2941 24.7562C39.7643 26.0412 40.2692 27.4212 40.8335 28.8833C44.3165 37.9069 52.0629 56.4267 54.0642 60.3183C55.2509 62.6253 57.6055 63.8181 59.8229 63.4383C60.9289 63.2487 61.9195 62.6667 62.5629 61.7379C63.2009 60.8169 63.4435 59.6385 63.2642 58.3023C63.0949 57.0409 62.4702 53.2918 61.6575 48.4151C61.0042 44.4942 60.2295 39.8446 59.4722 35.1728C58.6202 29.9171 57.7882 24.6206 57.1695 20.2647C56.5455 15.8713 56.1529 12.5287 56.1529 11.1173C56.1529 8.17197 56.6075 6.08673 57.5289 4.73376C58.3809 3.48209 59.7255 2.72154 62.0169 2.60333C62.7182 2.56716 63.2622 2.83202 63.7815 3.60147C64.3422 4.43228 64.7509 5.70627 65.0369 7.30689C65.3189 8.88315 65.4629 10.6516 65.5735 12.3997C65.6009 12.8236 65.6255 13.2482 65.6502 13.6685ZM66.0609 2.35526C65.1835 1.05578 63.8149 0.106643 61.8642 0.207263C58.8529 0.362627 56.6375 1.44873 55.2549 3.47999C53.9409 5.40993 53.4862 8.04393 53.4862 11.1173C53.4862 12.7153 53.9082 16.2292 54.5249 20.569C55.1462 24.9462 55.9809 30.2594 56.8335 35.5193C57.6015 40.2568 58.3822 44.941 59.0362 48.8669C59.8389 53.6824 60.4515 57.3571 60.6169 58.5902C60.7409 59.5113 60.5475 60.1107 60.3002 60.4683C60.0582 60.8175 59.7135 61.0137 59.3235 61.0803C58.5489 61.2135 57.2675 60.8331 56.4842 59.3103C54.5462 55.5414 46.8389 37.1283 43.3525 28.0957C42.8379 26.7626 42.3591 25.4544 41.9009 24.2025C40.8469 21.3232 39.9019 18.7413 38.8813 16.837C38.1443 15.4618 37.2733 14.2432 36.1195 13.4935C34.8643 12.6779 33.4021 12.4982 31.8103 12.9922C30.4433 13.4164 29.3045 14.0242 28.4363 14.8842C27.5633 15.7491 27.0363 16.7974 26.7709 17.9957C26.2562 20.3191 26.7012 23.3469 27.6089 27.1031C28.5372 30.9443 31.9413 40.2615 35.2591 49.2988C35.3886 49.6517 35.518 50.0041 35.6471 50.3558C38.8595 59.1045 41.8986 67.3809 42.6081 70.3275C42.6783 70.6191 42.7497 70.9143 42.8217 71.2119C43.5317 74.1453 44.3079 77.3523 44.7466 80.5971C45.2299 84.1725 45.2888 87.7029 44.4339 90.8541C44.0085 92.4231 43.4461 93.4083 42.8711 93.9981C42.3255 94.5573 41.7447 94.7889 41.1193 94.8327C40.4489 94.8789 39.6199 94.7139 38.6363 94.2891C37.6596 93.8667 36.6075 93.2217 35.5243 92.4069C33.9625 91.2315 31.7035 89.2107 29.2079 86.9787C28.1563 86.0379 27.0625 85.0593 25.9613 84.0909C24.1287 82.4793 22.2895 80.9091 20.6424 79.6425C19.0367 78.4077 17.4794 77.3541 16.235 76.8963C13.9635 76.0605 10.7195 75.6705 7.8442 75.8703C6.39846 75.9705 4.96886 76.2249 3.76133 76.6935C2.56373 77.1585 1.44713 77.8905 0.880331 79.0167C0.419398 79.9323 0.25213 80.7981 0.36993 81.6207C0.487263 82.4403 0.872396 83.1129 1.3274 83.6643C1.772 84.2025 2.31266 84.6597 2.7768 85.0377C2.87126 85.1145 2.96173 85.1877 3.0486 85.2579C3.42046 85.5579 3.72533 85.8045 3.98546 86.0625C4.38746 86.4621 5.90286 87.8031 7.98806 89.6481C9.97593 91.4067 12.4817 93.6237 15.0341 95.9205C20.3503 100.702 25.8647 105.823 27.8335 108.259C28.9689 109.664 31.4321 111.681 34.3689 113.907C37.0575 115.944 40.2627 118.244 43.4725 120.547C43.8215 120.798 44.1705 121.048 44.519 121.299C48.0829 123.857 51.5842 126.385 54.3722 128.562C55.7662 129.65 56.9662 130.638 57.8989 131.487C58.8549 132.358 59.4495 133.014 59.7155 133.443C62.5315 137.994 64.5762 141.94 65.4622 149.805C65.6189 151.194 66.4889 152.432 67.6702 153.479C68.8602 154.534 70.4602 155.482 72.2982 156.3C75.9789 157.938 80.8102 159.142 85.8009 159.598C90.7882 160.055 96.0389 159.775 100.531 158.358C105.043 156.934 108.866 154.332 110.751 150.134L110.897 149.808L110.825 149.463C110.023 145.615 108.938 139.414 108.296 133.341C107.976 130.304 107.767 127.315 107.757 124.676C107.747 122.017 107.94 119.794 108.382 118.248C109.65 113.811 109.634 107.416 109.332 101.293C109.206 98.7519 109.032 96.2631 108.87 93.9435C108.634 90.5685 108.424 87.5523 108.424 85.2567C108.424 77.4639 109.038 71.3721 110.758 67.3593C111.011 66.7701 111.37 65.9475 111.805 64.9515C112.918 62.4003 114.528 58.7109 116.122 54.8837C118.332 49.5802 120.563 43.8958 121.42 40.5206C122.248 37.26 122.885 34.5177 122.986 32.4228C123.084 30.3908 122.702 28.4228 120.775 27.4444C117.378 25.7192 110.842 27.5168 108.249 34.5402C107.04 37.8166 104.748 43.8823 102.47 49.523C101.331 52.3442 100.198 55.0501 99.2075 57.2443C98.1982 59.4807 97.3849 61.0725 96.8869 61.7529C95.9549 63.0255 94.7675 63.3897 93.9475 63.3351C93.1082 63.2787 92.6955 62.8491 92.6649 62.3469C92.5129 59.8791 91.4549 38.5732 91.4549 34.3714C91.4549 32.1768 90.9522 27.4145 90.4449 22.7305C90.4062 22.3775 90.3682 22.0249 90.3295 21.6735C89.8549 17.2965 89.4015 13.122 89.3329 11.0811C89.2802 9.51591 88.3629 8.27871 87.1262 7.47495C85.9069 6.68235 84.3429 6.27885 82.8002 6.30981C81.2495 6.34089 79.6349 6.81453 78.3749 7.87497C77.0995 8.94915 76.3009 10.5303 76.2135 12.576C76.0602 16.1847 76.2515 22.7295 76.4789 28.8034C76.5529 30.7956 76.6309 32.7362 76.7022 34.5126C76.8502 38.1925 76.9702 41.1684 76.9702 42.442C76.9702 46.3036 77.4255 56.1689 77.5782 58.512C77.5902 58.7174 77.5629 58.8478 77.5375 58.9215C77.5122 58.9925 77.4869 59.0163 77.4842 59.0193C77.4802 59.0223 77.4755 59.0271 77.4575 59.0325C77.4375 59.0391 77.3942 59.0481 77.3262 59.0439C77.0142 59.0265 76.5455 58.7687 76.4329 58.2258C75.9702 55.9999 69.1689 22.4224 68.5702 17.017C68.4602 16.0212 68.3915 14.8582 68.3162 13.59C68.2909 13.159 68.2649 12.7158 68.2362 12.2628C68.1249 10.5058 67.9749 8.63223 67.6695 6.92553C67.3689 5.24325 66.8962 3.59339 66.0609 2.35526Z" fill="black"/>
</svg>
