<svg width="123" height="160" viewBox="0 0 123 160" fill="none" xmlns="http://www.w3.org/2000/svg">
<path fill-rule="evenodd" clip-rule="evenodd" d="M57.3501 13.6686C57.2741 14.9539 57.2008 16.1989 57.0834 17.2551C56.4701 22.7928 49.6361 56.5153 49.1888 58.6668C48.8474 60.3123 47.3468 61.3545 45.8408 61.4391C45.0668 61.4829 44.2234 61.2723 43.5928 60.6819C42.9608 60.0891 42.7074 59.2701 42.7594 58.3834V58.376C42.9108 56.0602 43.3634 46.238 43.3634 42.442C43.3634 41.1237 43.4868 38.0627 43.6361 34.3382C43.7074 32.5768 43.7841 30.6669 43.8568 28.7228C44.0841 22.6224 44.2714 16.1723 44.1221 12.6679C44.0574 11.1571 43.4921 10.2077 42.8034 9.62762C42.0981 9.03374 41.1468 8.72936 40.1408 8.7092C39.1261 8.68886 38.1434 8.96072 37.4354 9.42062C36.7454 9.86936 36.3561 10.4617 36.3328 11.1535C36.2614 13.2808 35.7994 17.5321 35.3301 21.8538C35.2901 22.2236 35.2501 22.5939 35.2101 22.9634C34.6948 27.7178 34.2121 32.3256 34.2121 34.3714C34.2121 38.6505 33.1494 60.0225 32.9981 62.4795C32.8774 64.4397 31.1234 65.6031 29.2504 65.7285C27.3582 65.8545 25.2883 64.9881 23.8867 63.0735C23.2181 62.1603 22.3116 60.3393 21.3222 58.1476C20.3138 55.9137 19.1683 53.1763 18.024 50.3429C15.7345 44.6745 13.4351 38.5864 12.2206 35.297C9.96544 29.1886 4.98671 28.7977 3.53564 29.5346C3.03811 29.7873 2.58691 30.4183 2.67844 32.3189C2.76691 34.1567 3.34124 36.6808 4.18024 39.9861C4.99011 43.1767 7.15304 48.709 9.37477 54.0409C10.9617 57.8494 12.553 61.4961 13.6653 64.0449C14.1049 65.0523 14.4697 65.8881 14.7299 66.4953C16.6456 70.9635 17.2434 77.4561 17.2434 85.2567C17.2434 87.6087 17.0234 90.7719 16.783 94.2291C16.6223 96.5397 16.4524 98.9811 16.333 101.4C16.0292 107.554 16.0456 113.607 17.2014 117.651C17.7294 119.497 17.9203 121.968 17.91 124.684C17.8998 127.421 17.6841 130.488 17.3586 133.568C16.7271 139.544 15.6754 145.627 14.87 149.55C16.4418 152.766 19.4802 154.871 23.3514 156.093C27.3675 157.36 32.2014 157.644 36.9294 157.211C41.6548 156.778 46.1688 155.64 49.5201 154.149C51.1968 153.402 52.5334 152.589 53.4588 151.77C54.3921 150.942 54.8141 150.192 54.8848 149.563C55.8168 141.288 58.0148 137.026 60.9554 132.276C61.4094 131.542 62.2254 130.693 63.2041 129.801C64.2054 128.889 65.4628 127.855 66.8808 126.748C69.7174 124.534 73.2614 121.976 76.8181 119.422C77.1661 119.173 77.5141 118.923 77.8614 118.674C81.0781 116.365 84.2541 114.087 86.9134 112.071C89.9048 109.804 92.1001 107.973 93.0101 106.848C95.1321 104.223 100.829 98.9469 106.081 94.2231C108.764 91.8093 111.334 89.5365 113.319 87.7803C115.283 86.0427 116.676 84.8115 117.039 84.4509C117.401 84.0915 117.833 83.7429 118.21 83.4393C118.287 83.3769 118.363 83.3163 118.434 83.2581C118.889 82.8879 119.257 82.5663 119.532 82.2333C119.797 81.9123 119.942 81.6189 119.985 81.3141C120.029 81.0129 119.987 80.5965 119.691 80.0073C119.5 79.6281 119.045 79.2321 118.183 78.8973C117.331 78.5667 116.213 78.3507 114.951 78.2631C112.409 78.0867 109.593 78.4485 107.774 79.1181C106.973 79.4127 105.709 80.2227 104.09 81.4671C102.513 82.6797 100.725 84.2043 98.9028 85.8075C97.8661 86.7189 96.8134 87.6609 95.7841 88.5819C93.2414 90.8559 90.8414 93.0027 89.1861 94.2483C87.9968 95.1429 86.7574 95.9169 85.5181 96.4527C84.2861 96.9849 82.9748 97.3155 81.6761 97.2255C80.3314 97.1319 79.1134 96.5943 78.1248 95.5809C77.1661 94.5975 76.4594 93.2061 75.9754 91.4235C75.0128 87.8721 75.1054 84.0159 75.6068 80.3073C76.0614 76.9443 76.8641 73.6275 77.5714 70.7085C77.6441 70.4079 77.7161 70.1109 77.7861 69.8193C78.5268 66.7431 81.5881 58.4058 84.7434 49.8145C84.8988 49.392 85.0541 48.969 85.2094 48.5458C88.5581 39.4245 91.8961 30.2752 92.7854 26.593C93.6961 22.8258 94.0088 20.2453 93.6141 18.465C93.4254 17.6114 93.0808 16.984 92.5901 16.4981C92.0948 16.0074 91.3781 15.5892 90.3208 15.2611C89.4881 15.0028 88.9428 15.1137 88.4414 15.4395C87.8388 15.8311 87.2041 16.6045 86.5208 17.8797C85.5794 19.6366 84.7241 21.9733 83.7061 24.7562C83.2361 26.0412 82.7314 27.4212 82.1668 28.8833C78.6841 37.9069 70.9374 56.4268 68.9361 60.3183C67.7494 62.6253 65.3948 63.8181 63.1774 63.4383C62.0714 63.2487 61.0808 62.6667 60.4374 61.7379C59.7994 60.8169 59.5568 59.6385 59.7361 58.3023C59.9054 57.0409 60.5301 53.2918 61.3428 48.415C61.9961 44.4942 62.7708 39.8446 63.5281 35.1728C64.3801 29.917 65.2121 24.6205 65.8308 20.2647C66.4548 15.8713 66.8474 12.5287 66.8474 11.1173C66.8474 8.17196 66.3928 6.08672 65.4714 4.73377C64.6194 3.48209 63.2748 2.72154 60.9834 2.60333C60.2821 2.56716 59.7381 2.83203 59.2188 3.60147C58.6581 4.43228 58.2494 5.70626 57.9634 7.30694C57.6814 8.8832 57.5374 10.6516 57.4268 12.3997C57.3994 12.8236 57.3748 13.2482 57.3501 13.6686ZM56.9394 2.35527C57.8168 1.05578 59.1854 0.106649 61.1361 0.207263C64.1474 0.362633 66.3628 1.44873 67.7454 3.48C69.0594 5.40992 69.5141 8.04392 69.5141 11.1173C69.5141 12.7153 69.0921 16.2292 68.4754 20.569C67.8541 24.9462 67.0194 30.2594 66.1668 35.5192C65.3988 40.2568 64.6181 44.941 63.9641 48.8669C63.1614 53.6824 62.5488 57.3571 62.3834 58.5902C62.2594 59.5113 62.4528 60.1107 62.7001 60.4683C62.9421 60.8175 63.2868 61.0137 63.6768 61.0803C64.4514 61.2135 65.7328 60.8331 66.5161 59.3103C68.4541 55.5414 76.1614 37.1283 79.6474 28.0957C80.1621 26.7625 80.6414 25.4544 81.0994 24.2025C82.1534 21.3232 83.0981 18.7413 84.1188 16.837C84.8561 15.4618 85.7268 14.2432 86.8808 13.4935C88.1361 12.6779 89.5981 12.4982 91.1901 12.9922C92.5568 13.4164 93.6961 14.0242 94.5641 14.8843C95.4368 15.7491 95.9641 16.7974 96.2294 17.9957C96.7441 20.3191 96.2988 23.3469 95.3914 27.103C94.4634 30.9442 91.0588 40.2615 87.7414 49.2988C87.6114 49.6517 87.4821 50.0041 87.3534 50.3558C84.1408 59.1045 81.1014 67.3809 80.3921 70.3275C80.3221 70.6191 80.2508 70.9143 80.1788 71.2119C79.4688 74.1453 78.6928 77.3523 78.2534 80.5971C77.7701 84.1725 77.7114 87.7029 78.5661 90.8541C78.9921 92.4231 79.5541 93.4083 80.1294 93.9981C80.6748 94.5573 81.2554 94.7889 81.8808 94.8327C82.5514 94.8789 83.3801 94.7139 84.3641 94.2891C85.3408 93.8667 86.3928 93.2217 87.4761 92.4069C89.0381 91.2315 91.2968 89.2107 93.7921 86.9787C94.8441 86.0379 95.9381 85.0593 97.0388 84.0909C98.8714 82.4793 100.711 80.9091 102.358 79.6425C103.963 78.4077 105.521 77.3541 106.765 76.8963C109.037 76.0605 112.281 75.6705 115.156 75.8703C116.602 75.9705 118.031 76.2249 119.239 76.6935C120.437 77.1585 121.553 77.8905 122.12 79.0167C122.581 79.9323 122.748 80.7981 122.63 81.6207C122.513 82.4403 122.128 83.1129 121.673 83.6643C121.228 84.2031 120.687 84.6597 120.223 85.0377C120.129 85.1145 120.039 85.1877 119.951 85.2579C119.58 85.5579 119.275 85.8045 119.015 86.0625C118.613 86.4621 117.097 87.8031 115.012 89.6481C113.024 91.4067 110.519 93.6237 107.966 95.9205C102.65 100.702 97.1354 105.823 95.1668 108.259C94.0314 109.664 91.5681 111.681 88.6314 113.907C85.9428 115.944 82.7374 118.244 79.5281 120.547C79.1788 120.798 78.8294 121.048 78.4814 121.299C74.9174 123.857 71.4161 126.385 68.6281 128.562C67.2341 129.65 66.0341 130.638 65.1014 131.487C64.1454 132.358 63.5508 133.014 63.2848 133.443C60.4688 137.994 58.4241 141.94 57.5381 149.805C57.3814 151.194 56.5114 152.432 55.3301 153.479C54.1401 154.534 52.5401 155.482 50.7021 156.3C47.0214 157.938 42.1901 159.142 37.1994 159.598C32.2121 160.055 26.9612 159.775 22.4692 158.358C17.9574 156.934 14.1346 154.332 12.2498 150.134L12.1035 149.808L12.1755 149.463C12.9776 145.615 14.062 139.414 14.704 133.341C15.0249 130.304 15.2335 127.315 15.2434 124.676C15.2534 122.017 15.0605 119.794 14.6188 118.248C13.3504 113.811 13.3668 107.416 13.669 101.293C13.7945 98.7519 13.9684 96.2631 14.1304 93.9435C14.3661 90.5685 14.5768 87.5523 14.5768 85.2567C14.5768 77.4639 13.9626 71.3721 12.242 67.3593C11.9894 66.7701 11.6305 65.9475 11.1958 64.9515C10.0827 62.4003 8.47264 58.7109 6.87791 54.8836C4.66804 49.5802 2.43724 43.8958 1.58051 40.5206C0.752908 37.26 0.115172 34.5177 0.0142386 32.4228C-0.083628 30.3908 0.298508 28.4228 2.22511 27.4444C5.62231 25.7191 12.1582 27.5168 14.7513 34.5402C15.961 37.8166 18.2519 43.8823 20.5302 49.523C21.6696 52.3442 22.8023 55.0501 23.7928 57.2443C24.8024 59.4807 25.6154 61.0725 26.1134 61.7529C27.0452 63.0255 28.233 63.3897 29.053 63.3351C29.8923 63.2787 30.3048 62.8491 30.3357 62.3469C30.4875 59.8791 31.5454 38.5732 31.5454 34.3714C31.5454 32.1768 32.0481 27.4145 32.5554 22.7305C32.5941 22.3775 32.6321 22.0249 32.6708 21.6735C33.1454 17.2965 33.5988 13.122 33.6674 11.0811C33.7201 9.5159 34.6374 8.2787 35.8741 7.47494C37.0934 6.68234 38.6574 6.27884 40.2001 6.3098C41.7508 6.34094 43.3654 6.81452 44.6254 7.87496C45.9008 8.94914 46.6994 10.5303 46.7868 12.576C46.9401 16.1847 46.7488 22.7295 46.5214 28.8034C46.4474 30.7956 46.3694 32.7361 46.2981 34.5126C46.1501 38.1925 46.0301 41.1684 46.0301 42.442C46.0301 46.3036 45.5748 56.1689 45.4221 58.512C45.4101 58.7173 45.4374 58.8478 45.4628 58.9215C45.4881 58.9924 45.5134 59.0163 45.5161 59.0193C45.5201 59.0223 45.5248 59.0271 45.5428 59.0325C45.5628 59.0391 45.6061 59.0481 45.6741 59.0439C45.9861 59.0265 46.4548 58.7686 46.5674 58.2258C47.0301 55.9999 53.8314 22.4224 54.4301 17.017C54.5401 16.0212 54.6088 14.8582 54.6841 13.59C54.7094 13.159 54.7354 12.7158 54.7641 12.2629C54.8754 10.5058 55.0254 8.63222 55.3308 6.92552C55.6314 5.24324 56.1041 3.59339 56.9394 2.35527Z" fill="black"/>
</svg>
