<svg width="30" height="30" viewBox="0 0 30 30" fill="none" xmlns="http://www.w3.org/2000/svg">
<g clip-path="url(#clip0_104_66)">
<path d="M15 30C23.2852 30 30 23.2852 30 15C30 6.71484 23.2852 0 15 0C6.71484 0 0 6.71484 0 15C0 23.2852 6.71484 30 15 30ZM12.6562 19.6875H14.0625V15.9375H12.6562C11.877 15.9375 11.25 15.3105 11.25 14.5312C11.25 13.752 11.877 13.125 12.6562 13.125H15.4688C16.248 13.125 16.875 13.752 16.875 14.5312V19.6875H17.3438C18.123 19.6875 18.75 20.3145 18.75 21.0938C18.75 21.873 18.123 22.5 17.3438 22.5H12.6562C11.877 22.5 11.25 21.873 11.25 21.0938C11.25 20.3145 11.877 19.6875 12.6562 19.6875ZM15 11.25C13.9629 11.25 13.125 10.4121 13.125 9.375C13.125 8.33789 13.9629 7.5 15 7.5C16.0371 7.5 16.875 8.33789 16.875 9.375C16.875 10.4121 16.0371 11.25 15 11.25Z" fill="#00A876"/>
</g>
<defs>
<clipPath id="clip0_104_66">
<rect width="30" height="30" fill="white"/>
</clipPath>
</defs>
</svg>
