<svg width="128" height="128" viewBox="0 0 128 128" fill="none" xmlns="http://www.w3.org/2000/svg">
<path d="M48.9113 35.306C48.9113 35.306 46.9113 10 18.9113 4C18.9113 4 11.6233 28.946 38.2673 48.474" stroke="#00A876" stroke-width="4" stroke-linecap="round" stroke-linejoin="round"/>
<path d="M37.1113 92.972V104C37.1113 111.732 30.8433 120 23.1113 120L21.1113 124" stroke="#00A876" stroke-width="4" stroke-linecap="round" stroke-linejoin="round"/>
<path d="M101.111 124L99.1113 120C91.3793 120 85.1113 111.732 85.1113 104V92.972" stroke="#00A876" stroke-width="4" stroke-linecap="round" stroke-linejoin="round"/>
<path d="M87.2373 57.658C86.3719 54.4355 85.17 51.313 83.6513 48.342L83.7553 48.474C110.399 28.946 103.111 4 103.111 4C103.023 4.018 102.943 4.042 102.857 4.062C75.1113 10.162 73.1113 35.138 73.1113 35.138L74.5893 36.988C70.7967 33.8374 66.0413 32.0775 61.1113 32C49.1853 32 39.0013 42.65 34.9653 57.658" stroke="#00A876" stroke-width="4" stroke-linecap="round" stroke-linejoin="round"/>
<path d="M34.1273 82.686C35.506 90.6553 39.0894 98.0791 44.4713 104.116C48.5113 112.6 54.4573 118 61.1113 118C67.7653 118 73.7113 112.6 77.7513 104.116C83.1333 98.0791 86.7167 90.6553 88.0953 82.686" stroke="#00A876" stroke-width="4" stroke-linecap="round" stroke-linejoin="round"/>
<path d="M103.027 4C102.939 4.018 102.859 4.042 102.773 4.062C101.921 9.754 98.4353 25.944 85.7113 35.728" stroke="#00A876" stroke-width="4" stroke-linecap="round" stroke-linejoin="round"/>
<path d="M19.7113 4C19.7993 4.018 19.8793 4.042 19.9653 4.062C20.8173 9.754 24.3033 25.944 37.0273 35.728" stroke="#00A876" stroke-width="4" stroke-linecap="round" stroke-linejoin="round"/>
<path d="M61.1113 118V106" stroke="#00A876" stroke-width="4" stroke-linecap="round" stroke-linejoin="round"/>
<path d="M67.1113 100V102C67.1113 103.061 66.6899 104.078 65.9398 104.828C65.1896 105.579 64.1722 106 63.1113 106H59.1113C58.0505 106 57.033 105.579 56.2829 104.828C55.5328 104.078 55.1113 103.061 55.1113 102V100" stroke="#00A876" stroke-width="4" stroke-linecap="round" stroke-linejoin="round"/>
<path d="M35.8973 58H54.3333C55.0701 58 55.7767 58.2927 56.2977 58.8137C56.8186 59.3346 57.1113 60.0412 57.1113 60.778V73.214C57.1113 74.3678 56.8841 75.5103 56.4425 76.5763C56.001 77.6422 55.3538 78.6108 54.538 79.4266C53.7221 80.2425 52.7536 80.8897 51.6876 81.3312C50.6216 81.7727 49.4791 82 48.3253 82H29.8893C29.1526 82 28.446 81.7073 27.925 81.1863C27.404 80.6654 27.1113 79.9588 27.1113 79.222V66.786C27.1113 64.4558 28.037 62.2211 29.6847 60.5734C31.3324 58.9257 33.5671 58 35.8973 58V58Z" stroke="#00A876" stroke-width="4" stroke-linecap="round" stroke-linejoin="round"/>
<path d="M29.1113 64H57.1113" stroke="#00A876" stroke-width="4" stroke-linecap="round" stroke-linejoin="round"/>
<path d="M57.1113 70H29.1113" stroke="#00A876" stroke-width="4" stroke-linecap="round" stroke-linejoin="round"/>
<path d="M54.9573 76H29.1113" stroke="#00A876" stroke-width="4" stroke-linecap="round" stroke-linejoin="round"/>
<path d="M92.3333 82H73.8973C71.5671 82 69.3324 81.0743 67.6847 79.4266C66.037 77.7789 65.1113 75.5442 65.1113 73.214V60.778C65.1113 60.0412 65.404 59.3346 65.925 58.8137C66.446 58.2927 67.1526 58 67.8893 58H86.3253C88.6555 58 90.8903 58.9257 92.538 60.5734C94.1857 62.2211 95.1113 64.4558 95.1113 66.786V79.222C95.1113 79.9588 94.8186 80.6654 94.2977 81.1863C93.7767 81.7073 93.0701 82 92.3333 82V82Z" stroke="#00A876" stroke-width="4" stroke-linecap="round" stroke-linejoin="round"/>
<path d="M93.1113 64H65.1113" stroke="#00A876" stroke-width="4" stroke-linecap="round" stroke-linejoin="round"/>
<path d="M65.1113 70H93.1113" stroke="#00A876" stroke-width="4" stroke-linecap="round" stroke-linejoin="round"/>
<path d="M67.2653 76H93.1113" stroke="#00A876" stroke-width="4" stroke-linecap="round" stroke-linejoin="round"/>
<path d="M53.1113 58H67.1113" stroke="#00A876" stroke-width="4" stroke-linecap="round" stroke-linejoin="round"/>
</svg>
