<svg width="231" height="128" viewBox="0 0 231 128" fill="none" xmlns="http://www.w3.org/2000/svg">
<path d="M118.797 74V59.1636H120.593V66.5239H120.767L127.432 59.1636H129.779L123.549 65.8574L129.779 74H127.606L122.448 67.1034L120.593 69.1898V74H118.797ZM132.713 74H130.829L136.277 59.1636H138.132L143.579 74H141.696L137.262 61.5108H137.146L132.713 74ZM133.408 68.2045H141V69.7983H133.408V68.2045ZM157.655 59.1636V74H155.916L147.832 62.3511H147.687V74H145.89V59.1636H147.629L155.743 70.8415H155.887V59.1636H157.655ZM171.392 63.8C171.233 63.3122 171.023 62.8751 170.762 62.4888C170.506 62.0976 170.199 61.7643 169.842 61.4891C169.489 61.2138 169.088 61.0037 168.639 60.8588C168.19 60.7139 167.698 60.6415 167.161 60.6415C166.282 60.6415 165.483 60.8685 164.764 61.3224C164.044 61.7764 163.472 62.4453 163.047 63.3291C162.622 64.2129 162.409 65.2972 162.409 66.5818C162.409 67.8665 162.624 68.9507 163.054 69.8345C163.484 70.7183 164.066 71.3872 164.8 71.8412C165.534 72.2952 166.36 72.5222 167.277 72.5222C168.127 72.5222 168.876 72.3411 169.523 71.9788C170.175 71.6118 170.682 71.095 171.044 70.4286C171.411 69.7572 171.595 68.9676 171.595 68.0597L172.146 68.1756H167.683V66.5818H173.334V68.1756C173.334 69.3974 173.073 70.4599 172.551 71.3631C172.034 72.2662 171.32 72.9665 170.407 73.4639C169.499 73.9565 168.456 74.2028 167.277 74.2028C165.964 74.2028 164.809 73.8938 163.815 73.2756C162.825 72.6574 162.052 71.7784 161.496 70.6386C160.946 69.4989 160.671 68.1466 160.671 66.5818C160.671 65.4082 160.828 64.353 161.141 63.4161C161.46 62.4743 161.909 61.6726 162.489 61.0109C163.068 60.3493 163.754 59.8422 164.546 59.4896C165.338 59.1371 166.21 58.9608 167.161 58.9608C167.944 58.9608 168.673 59.0791 169.349 59.3158C170.03 59.5476 170.636 59.8784 171.168 60.3082C171.704 60.7332 172.15 61.2428 172.508 61.8368C172.865 62.426 173.111 63.0804 173.247 63.8H171.392ZM176.561 74H174.677L180.125 59.1636H181.98L187.427 74H185.544L181.11 61.5108H180.994L176.561 74ZM177.256 68.2045H184.848V69.7983H177.256V68.2045ZM189.738 74V59.1636H194.751C195.911 59.1636 196.862 59.3616 197.606 59.7577C198.349 60.1489 198.9 60.6874 199.257 61.3732C199.615 62.0589 199.794 62.8389 199.794 63.7131C199.794 64.5872 199.615 65.3624 199.257 66.0385C198.9 66.7146 198.352 67.2459 197.613 67.6322C196.874 68.0138 195.93 68.2045 194.78 68.2045H190.724V66.5818H194.722C195.515 66.5818 196.152 66.4659 196.635 66.2341C197.123 66.0023 197.475 65.6739 197.693 65.2489C197.915 64.819 198.026 64.3071 198.026 63.7131C198.026 63.119 197.915 62.5999 197.693 62.1555C197.47 61.7112 197.116 61.3683 196.628 61.1268C196.14 60.8805 195.495 60.7574 194.693 60.7574H191.535V74H189.738ZM196.722 67.3352L200.373 74H198.287L194.693 67.3352H196.722ZM215.305 66.5818C215.305 68.1466 215.023 69.4989 214.458 70.6386C213.893 71.7784 213.118 72.6574 212.132 73.2756C211.147 73.8938 210.022 74.2028 208.757 74.2028C207.491 74.2028 206.366 73.8938 205.381 73.2756C204.395 72.6574 203.62 71.7784 203.055 70.6386C202.49 69.4989 202.208 68.1466 202.208 66.5818C202.208 65.017 202.49 63.6648 203.055 62.525C203.62 61.3852 204.395 60.5063 205.381 59.8881C206.366 59.2699 207.491 58.9608 208.757 58.9608C210.022 58.9608 211.147 59.2699 212.132 59.8881C213.118 60.5063 213.893 61.3852 214.458 62.525C215.023 63.6648 215.305 65.017 215.305 66.5818ZM213.567 66.5818C213.567 65.2972 213.352 64.2129 212.922 63.3291C212.497 62.4453 211.92 61.7764 211.191 61.3224C210.466 60.8685 209.655 60.6415 208.757 60.6415C207.858 60.6415 207.044 60.8685 206.315 61.3224C205.591 61.7764 205.014 62.4453 204.584 63.3291C204.159 64.2129 203.946 65.2972 203.946 66.5818C203.946 67.8665 204.159 68.9507 204.584 69.8345C205.014 70.7183 205.591 71.3872 206.315 71.8412C207.044 72.2952 207.858 72.5222 208.757 72.5222C209.655 72.5222 210.466 72.2952 211.191 71.8412C211.92 71.3872 212.497 70.7183 212.922 69.8345C213.352 68.9507 213.567 67.8665 213.567 66.5818ZM230.844 66.5818C230.844 68.1466 230.562 69.4989 229.997 70.6386C229.432 71.7784 228.657 72.6574 227.671 73.2756C226.686 73.8938 225.561 74.2028 224.296 74.2028C223.03 74.2028 221.905 73.8938 220.92 73.2756C219.935 72.6574 219.159 71.7784 218.594 70.6386C218.029 69.4989 217.747 68.1466 217.747 66.5818C217.747 65.017 218.029 63.6648 218.594 62.525C219.159 61.3852 219.935 60.5063 220.92 59.8881C221.905 59.2699 223.03 58.9608 224.296 58.9608C225.561 58.9608 226.686 59.2699 227.671 59.8881C228.657 60.5063 229.432 61.3852 229.997 62.525C230.562 63.6648 230.844 65.017 230.844 66.5818ZM229.106 66.5818C229.106 65.2972 228.891 64.2129 228.461 63.3291C228.036 62.4453 227.459 61.7764 226.73 61.3224C226.005 60.8685 225.194 60.6415 224.296 60.6415C223.397 60.6415 222.584 60.8685 221.854 61.3224C221.13 61.7764 220.553 62.4453 220.123 63.3291C219.698 64.2129 219.485 65.2972 219.485 66.5818C219.485 67.8665 219.698 68.9507 220.123 69.8345C220.553 70.7183 221.13 71.3872 221.854 71.8412C222.584 72.2952 223.397 72.5222 224.296 72.5222C225.194 72.5222 226.005 72.2952 226.73 71.8412C227.459 71.3872 228.036 70.7183 228.461 69.8345C228.891 68.9507 229.106 67.8665 229.106 66.5818Z" fill="#00A876"/>
<path d="M122.125 85L120.125 82.3295H119.409V85H118.705V79.1818H119.409V81.7045H119.716L122.045 79.1818H122.886L120.534 81.7386L122.966 85H122.125ZM123.376 85V84.3523H123.547C123.789 84.3523 123.978 84.2746 124.112 84.1193C124.247 83.964 124.343 83.7131 124.402 83.3665C124.463 83.0199 124.503 82.5606 124.524 81.9886L124.626 79.1818H128.172V85H127.467V79.8068H125.297L125.206 82.125C125.183 82.7348 125.127 83.2538 125.038 83.6818C124.949 84.1098 124.793 84.4366 124.57 84.6619C124.346 84.8873 124.02 85 123.592 85H123.376ZM129.818 85H129.08L131.216 79.1818H131.943L134.08 85H133.341L131.602 80.1023H131.557L129.818 85ZM130.091 82.7273H133.068V83.3523H130.091V82.7273ZM134.986 85V79.1818H137.02C137.425 79.1818 137.759 79.2519 138.023 79.392C138.286 79.5303 138.482 79.7169 138.611 79.9517C138.74 80.1847 138.804 80.4432 138.804 80.7273C138.804 80.9773 138.759 81.1837 138.67 81.3466C138.583 81.5095 138.468 81.6383 138.324 81.733C138.182 81.8277 138.027 81.8977 137.861 81.9432V82C138.039 82.0114 138.218 82.0739 138.398 82.1875C138.578 82.3011 138.728 82.464 138.849 82.6761C138.971 82.8883 139.031 83.1477 139.031 83.4545C139.031 83.7462 138.965 84.0085 138.832 84.2415C138.7 84.4744 138.491 84.6591 138.205 84.7955C137.919 84.9318 137.546 85 137.088 85H134.986ZM135.69 84.375H137.088C137.548 84.375 137.875 84.286 138.068 84.108C138.263 83.928 138.361 83.7102 138.361 83.4545C138.361 83.2576 138.311 83.0758 138.21 82.9091C138.11 82.7405 137.967 82.6061 137.781 82.5057C137.596 82.4034 137.376 82.3523 137.122 82.3523H135.69V84.375ZM135.69 81.7386H136.997C137.209 81.7386 137.401 81.697 137.571 81.6136C137.743 81.5303 137.88 81.4129 137.98 81.2614C138.082 81.1098 138.134 80.9318 138.134 80.7273C138.134 80.4716 138.045 80.2547 137.866 80.0767C137.688 79.8968 137.406 79.8068 137.02 79.8068H135.69V81.7386ZM140.189 79.1818H140.882V83.7614H140.939L144.121 79.1818H144.803V85H144.098V80.4318H144.041L140.871 85H140.189V79.1818ZM146.451 85H145.712L147.849 79.1818H148.576L150.712 85H149.974L148.235 80.1023H148.19L146.451 85ZM146.724 82.7273H149.701V83.3523H146.724V82.7273ZM150.621 79.8068V79.1818H154.984V79.8068H153.155V85H152.45V79.8068H150.621ZM156.379 85.0795V84.4205H156.742C156.882 84.4205 157 84.393 157.094 84.3381C157.191 84.2831 157.271 84.2121 157.333 84.125C157.397 84.0379 157.451 83.947 157.492 83.8523L157.583 83.6364L155.572 79.1818H156.333L157.935 82.7955L159.401 79.1818H160.151L158.14 84.0568C158.06 84.2386 157.969 84.4072 157.867 84.5625C157.767 84.7178 157.629 84.8428 157.455 84.9375C157.283 85.0322 157.049 85.0795 156.754 85.0795H156.379ZM161.064 85V79.1818H163.03C163.486 79.1818 163.859 79.2642 164.149 79.429C164.441 79.5919 164.657 79.8125 164.797 80.0909C164.937 80.3693 165.007 80.6799 165.007 81.0227C165.007 81.3655 164.937 81.6771 164.797 81.9574C164.659 82.2377 164.445 82.4612 164.155 82.6278C163.865 82.7926 163.494 82.875 163.041 82.875H161.632V82.25H163.018C163.331 82.25 163.582 82.196 163.771 82.0881C163.961 81.9801 164.098 81.8343 164.183 81.6506C164.27 81.465 164.314 81.2557 164.314 81.0227C164.314 80.7898 164.27 80.5814 164.183 80.3977C164.098 80.214 163.96 80.0701 163.768 79.9659C163.577 79.8598 163.323 79.8068 163.007 79.8068H161.768V85H161.064ZM166.142 85V79.1818H166.847V81.7727H169.949V79.1818H170.653V85H169.949V82.3977H166.847V85H166.142ZM172.587 81.625H174.246C174.662 81.625 175.014 81.6932 175.3 81.8295C175.588 81.9659 175.805 82.1581 175.953 82.4062C176.103 82.6544 176.178 82.947 176.178 83.2841C176.178 83.6212 176.103 83.9186 175.953 84.1761C175.805 84.4337 175.588 84.6354 175.3 84.7812C175.014 84.9271 174.662 85 174.246 85H172.064V79.1818H172.768V84.3864H174.246C174.511 84.3864 174.735 84.3333 174.919 84.2273C175.105 84.1193 175.245 83.9811 175.339 83.8125C175.436 83.642 175.484 83.4621 175.484 83.2727C175.484 82.9943 175.377 82.7547 175.163 82.554C174.949 82.3513 174.643 82.25 174.246 82.25H172.587V81.625ZM177.45 79.1818V85H176.746V79.1818H177.45ZM178.861 79.1818H179.554V83.7614H179.611L182.793 79.1818H183.474V85H182.77V80.4318H182.713L179.543 85H178.861V79.1818ZM181.724 77.7273H182.349C182.349 78.0341 182.243 78.285 182.031 78.4801C181.819 78.6752 181.531 78.7727 181.168 78.7727C180.81 78.7727 180.525 78.6752 180.312 78.4801C180.102 78.285 179.997 78.0341 179.997 77.7273H180.622C180.622 77.875 180.663 78.0047 180.744 78.1165C180.828 78.2282 180.969 78.2841 181.168 78.2841C181.366 78.2841 181.509 78.2282 181.594 78.1165C181.681 78.0047 181.724 77.875 181.724 77.7273ZM186.816 79.8068V79.1818H191.18V79.8068H189.35V85H188.646V79.8068H186.816ZM192.267 85V79.1818H194.233C194.689 79.1818 195.063 79.2642 195.352 79.429C195.644 79.5919 195.86 79.8125 196 80.0909C196.14 80.3693 196.21 80.6799 196.21 81.0227C196.21 81.3655 196.14 81.6771 196 81.9574C195.862 82.2377 195.648 82.4612 195.358 82.6278C195.068 82.7926 194.697 82.875 194.244 82.875H192.835V82.25H194.222C194.534 82.25 194.785 82.196 194.974 82.0881C195.164 81.9801 195.301 81.8343 195.386 81.6506C195.473 81.465 195.517 81.2557 195.517 81.0227C195.517 80.7898 195.473 80.5814 195.386 80.3977C195.301 80.214 195.163 80.0701 194.972 79.9659C194.78 79.8598 194.527 79.8068 194.21 79.8068H192.972V85H192.267ZM197.345 85V79.1818H200.857V79.8068H198.05V81.7727H200.675V82.3977H198.05V84.375H200.902V85H197.345ZM202.126 85V79.1818H202.831V81.7727H205.933V79.1818H206.638V85H205.933V82.3977H202.831V85H202.126ZM208.287 85H207.548L209.685 79.1818H210.412L212.548 85H211.81L210.071 80.1023H210.026L208.287 85ZM208.56 82.7273H211.537V83.3523H208.56V82.7273ZM216.898 79.1818V85H216.193V79.1818H216.898ZM212.966 85L214.852 81.9659L213.125 79.1818H213.977L215.489 81.7614H217.614L219.125 79.1818H219.977L218.239 81.9773L220.125 85H219.318L217.739 82.4205H215.352L213.761 85H212.966ZM221.048 85V79.1818H224.56V79.8068H221.753V81.7727H224.378V82.3977H221.753V84.375H224.605V85H221.048ZM225.83 85V79.1818H227.795C228.252 79.1818 228.625 79.2642 228.915 79.429C229.206 79.5919 229.422 79.8125 229.562 80.0909C229.703 80.3693 229.773 80.6799 229.773 81.0227C229.773 81.3655 229.703 81.6771 229.562 81.9574C229.424 82.2377 229.21 82.4612 228.92 82.6278C228.631 82.7926 228.259 82.875 227.807 82.875H226.398V82.25H227.784C228.097 82.25 228.348 82.196 228.537 82.0881C228.726 81.9801 228.864 81.8343 228.949 81.6506C229.036 81.465 229.08 81.2557 229.08 81.0227C229.08 80.7898 229.036 80.5814 228.949 80.3977C228.864 80.214 228.725 80.0701 228.534 79.9659C228.343 79.8598 228.089 79.8068 227.773 79.8068H226.534V85H225.83Z" fill="#00A876"/>
<path d="M48.9113 35.306C48.9113 35.306 46.9113 10 18.9113 4C18.9113 4 11.6233 28.946 38.2673 48.474" stroke="#00A876" stroke-width="4" stroke-linecap="round" stroke-linejoin="round"/>
<path d="M37.1113 92.972V104C37.1113 111.732 30.8433 120 23.1113 120L21.1113 124" stroke="#00A876" stroke-width="4" stroke-linecap="round" stroke-linejoin="round"/>
<path d="M101.111 124L99.1113 120C91.3793 120 85.1113 111.732 85.1113 104V92.972" stroke="#00A876" stroke-width="4" stroke-linecap="round" stroke-linejoin="round"/>
<path d="M87.2373 57.658C86.3719 54.4355 85.17 51.313 83.6513 48.342L83.7553 48.474C110.399 28.946 103.111 4 103.111 4C103.023 4.018 102.943 4.042 102.857 4.062C75.1113 10.162 73.1113 35.138 73.1113 35.138L74.5893 36.988C70.7967 33.8374 66.0413 32.0775 61.1113 32C49.1853 32 39.0013 42.65 34.9653 57.658" stroke="#00A876" stroke-width="4" stroke-linecap="round" stroke-linejoin="round"/>
<path d="M34.1273 82.686C35.506 90.6553 39.0894 98.0791 44.4713 104.116C48.5113 112.6 54.4573 118 61.1113 118C67.7653 118 73.7113 112.6 77.7513 104.116C83.1333 98.0791 86.7167 90.6553 88.0953 82.686" stroke="#00A876" stroke-width="4" stroke-linecap="round" stroke-linejoin="round"/>
<path d="M103.027 4C102.939 4.018 102.859 4.042 102.773 4.062C101.921 9.754 98.4353 25.944 85.7113 35.728" stroke="#00A876" stroke-width="4" stroke-linecap="round" stroke-linejoin="round"/>
<path d="M19.7113 4C19.7993 4.018 19.8793 4.042 19.9653 4.062C20.8173 9.754 24.3033 25.944 37.0273 35.728" stroke="#00A876" stroke-width="4" stroke-linecap="round" stroke-linejoin="round"/>
<path d="M61.1113 118V106" stroke="#00A876" stroke-width="4" stroke-linecap="round" stroke-linejoin="round"/>
<path d="M67.1113 100V102C67.1113 103.061 66.6899 104.078 65.9398 104.828C65.1896 105.579 64.1722 106 63.1113 106H59.1113C58.0505 106 57.033 105.579 56.2829 104.828C55.5328 104.078 55.1113 103.061 55.1113 102V100" stroke="#00A876" stroke-width="4" stroke-linecap="round" stroke-linejoin="round"/>
<path d="M35.8973 58H54.3333C55.0701 58 55.7767 58.2927 56.2977 58.8137C56.8186 59.3346 57.1113 60.0412 57.1113 60.778V73.214C57.1113 74.3678 56.8841 75.5103 56.4425 76.5763C56.001 77.6422 55.3538 78.6108 54.538 79.4266C53.7221 80.2425 52.7536 80.8897 51.6876 81.3312C50.6216 81.7727 49.4791 82 48.3253 82H29.8893C29.1526 82 28.446 81.7073 27.925 81.1863C27.404 80.6654 27.1113 79.9588 27.1113 79.222V66.786C27.1113 64.4558 28.037 62.2211 29.6847 60.5734C31.3324 58.9257 33.5671 58 35.8973 58V58Z" stroke="#00A876" stroke-width="4" stroke-linecap="round" stroke-linejoin="round"/>
<path d="M29.1113 64H57.1113" stroke="#00A876" stroke-width="4" stroke-linecap="round" stroke-linejoin="round"/>
<path d="M57.1113 70H29.1113" stroke="#00A876" stroke-width="4" stroke-linecap="round" stroke-linejoin="round"/>
<path d="M54.9573 76H29.1113" stroke="#00A876" stroke-width="4" stroke-linecap="round" stroke-linejoin="round"/>
<path d="M92.3333 82H73.8973C71.5671 82 69.3324 81.0743 67.6847 79.4266C66.037 77.7789 65.1113 75.5442 65.1113 73.214V60.778C65.1113 60.0412 65.404 59.3346 65.925 58.8137C66.446 58.2927 67.1526 58 67.8893 58H86.3253C88.6555 58 90.8903 58.9257 92.538 60.5734C94.1857 62.2211 95.1113 64.4558 95.1113 66.786V79.222C95.1113 79.9588 94.8186 80.6654 94.2977 81.1863C93.7767 81.7073 93.0701 82 92.3333 82V82Z" stroke="#00A876" stroke-width="4" stroke-linecap="round" stroke-linejoin="round"/>
<path d="M93.1113 64H65.1113" stroke="#00A876" stroke-width="4" stroke-linecap="round" stroke-linejoin="round"/>
<path d="M65.1113 70H93.1113" stroke="#00A876" stroke-width="4" stroke-linecap="round" stroke-linejoin="round"/>
<path d="M67.2653 76H93.1113" stroke="#00A876" stroke-width="4" stroke-linecap="round" stroke-linejoin="round"/>
<path d="M53.1113 58H67.1113" stroke="#00A876" stroke-width="4" stroke-linecap="round" stroke-linejoin="round"/>
</svg>
