<svg width="30" height="30" viewBox="0 0 30 30" fill="none" xmlns="http://www.w3.org/2000/svg">
<g clip-path="url(#clip0_59_2)">
<path d="M15 30C23.2843 30 30 23.2843 30 15C30 6.71573 23.2843 0 15 0C6.71573 0 0 6.71573 0 15C0 23.2843 6.71573 30 15 30Z" fill="#00A876"/>
<path d="M23.1042 15.0112C23.1042 17.7684 21.8135 19.0577 20.1921 19.0577C19.7461 19.0583 19.3072 18.9456 18.9166 18.7301C18.5261 18.5146 18.1968 18.2033 17.9595 17.8256C17.3053 18.4899 16.4406 18.9062 15.5133 19.0035C14.586 19.1008 13.6538 18.873 12.8759 18.359C12.098 17.845 11.5228 17.0768 11.2486 16.1857C10.9744 15.2945 11.0183 14.3358 11.3727 13.4734C11.7272 12.6111 12.3702 11.8986 13.1918 11.4578C14.0134 11.017 14.9625 10.8754 15.8771 11.057C16.7916 11.2386 17.6146 11.7322 18.2054 12.4535C18.7963 13.1747 19.1182 14.0788 19.1163 15.0112V16.3256C19.1163 16.9912 19.5851 17.46 20.1921 17.46C20.9149 17.46 21.5009 16.853 21.5009 15.0154C21.5084 13.5822 21.038 12.1874 20.1642 11.0514C19.2904 9.91545 18.0629 9.10305 16.6758 8.74261C15.2887 8.38216 13.821 8.49423 12.5047 9.0611C11.1884 9.62797 10.0985 10.6173 9.4073 11.8728C8.71609 13.1283 8.46296 14.5783 8.6879 15.9937C8.91285 17.4092 9.60305 18.7092 10.6494 19.6886C11.6958 20.6679 13.0387 21.2706 14.4659 21.4015C15.8931 21.5324 17.3232 21.1839 18.5302 20.4112L19.5851 21.6237C18.2552 22.5323 16.6804 23.015 15.0698 23.0079C13.4843 23.0043 11.9354 22.5306 10.6191 21.6467C9.3028 20.7629 8.27817 19.5085 7.6748 18.0423C7.07143 16.576 6.91641 14.9638 7.22935 13.4094C7.54229 11.8551 8.30914 10.4285 9.43291 9.30998C10.5567 8.19148 11.9869 7.43135 13.5427 7.12572C15.0985 6.82009 16.71 6.98268 18.1733 7.59294C19.6367 8.2032 20.8863 9.2337 21.764 10.5541C22.6416 11.8746 23.1081 13.4256 23.1042 15.0112ZM15.0893 17.4558C15.5728 17.4558 16.0455 17.3124 16.4475 17.0438C16.8495 16.7752 17.1628 16.3934 17.3479 15.9467C17.5329 15.5 17.5813 15.0085 17.487 14.5342C17.3927 14.06 17.1598 13.6244 16.8179 13.2825C16.476 12.9406 16.0405 12.7078 15.5662 12.6135C15.092 12.5192 14.6005 12.5676 14.1538 12.7526C13.7071 12.9376 13.3253 13.251 13.0567 13.653C12.788 14.055 12.6447 14.5277 12.6447 15.0112C12.6447 15.6595 12.9022 16.2813 13.3607 16.7398C13.8191 17.1983 14.441 17.4558 15.0893 17.4558Z" fill="white"/>
</g>
<defs>
<clipPath id="clip0_59_2">
<rect width="30" height="30" fill="white"/>
</clipPath>
</defs>
</svg>
