<svg width="30" height="30" viewBox="0 0 30 30" fill="none" xmlns="http://www.w3.org/2000/svg">
<path d="M15 30C23.2843 30 30 23.2843 30 15C30 6.71573 23.2843 0 15 0C6.71573 0 0 6.71573 0 15C0 23.2843 6.71573 30 15 30Z" fill="#00A876"/>
<path fill-rule="evenodd" clip-rule="evenodd" d="M6.88042 14.7419C11.2423 12.8414 14.1507 11.5884 15.6055 10.9828C19.7609 9.25535 20.6288 8.95535 21.1869 8.94419C21.3939 8.94016 21.5969 9.00117 21.7674 9.11861C21.887 9.22175 21.9633 9.36628 21.9809 9.52326C22.0109 9.71848 22.0194 9.91642 22.006 10.1135C21.7814 12.4856 20.806 18.2191 20.3107 20.8688C20.1014 21.9851 19.6883 22.366 19.2879 22.4037C18.42 22.4833 17.753 21.8288 16.9158 21.2777C15.5986 20.414 14.8548 19.8823 13.5767 19.034C12.099 18.0572 13.0576 17.5256 13.899 16.6521C14.1195 16.4233 17.9455 12.9405 18.0209 12.6251C18.0308 12.5786 18.0297 12.5303 18.0176 12.4843C18.0054 12.4382 17.9827 12.3956 17.9511 12.36C17.9053 12.3314 17.8535 12.3138 17.7997 12.3087C17.7459 12.3036 17.6917 12.3112 17.6414 12.3307C17.5102 12.3595 15.4069 13.7498 11.3316 16.5014C10.7344 16.9116 10.1934 17.1116 9.7088 17.1014C9.17438 17.0888 8.14739 16.7986 7.38274 16.5433C6.44646 16.2391 5.70833 16.0786 5.76694 15.5665C5.80135 15.2986 6.17251 15.0237 6.88042 14.7419Z" fill="white"/>
</svg>
