<svg width="30" height="30" viewBox="0 0 30 30" fill="none" xmlns="http://www.w3.org/2000/svg">
<g clip-path="url(#clip0_59_6)">
<path d="M15 30C23.2843 30 30 23.2843 30 15C30 6.71573 23.2843 0 15 0C6.71573 0 0 6.71573 0 15C0 23.2843 6.71573 30 15 30Z" fill="#00A876"/>
<path d="M15.5498 20.5312C9.73394 20.5312 6.41859 16.5433 6.27905 9.90698H9.19115C9.28743 14.7767 11.4349 16.8405 13.1358 17.2661V9.90698H15.8804V14.107C17.5549 13.927 19.3256 12.014 19.92 9.90698H22.6646C22.207 12.5009 20.2925 14.4154 18.9321 15.2023C19.9961 15.7307 20.9359 16.479 21.6893 17.3976C22.4426 18.3162 22.9924 19.3843 23.3023 20.5312H20.2828C19.6339 18.5107 18.0167 16.9479 15.8804 16.7358V20.5312H15.5498Z" fill="white"/>
</g>
<defs>
<clipPath id="clip0_59_6">
<rect width="30" height="30" fill="white"/>
</clipPath>
</defs>
</svg>
